<?xml version="1.0" encoding="UTF-8" standalone="no"?>
<!DOCTYPE svg PUBLIC "-//W3C//DTD SVG 1.1//EN"
 "http://www.w3.org/Graphics/SVG/1.1/DTD/svg11.dtd">
<!-- Generated by graphviz version 5.0.0 (20220707.1540)
 -->
<!-- Title: dependencies Pages: 1 -->
<svg width="548pt" height="174pt"
 viewBox="0.00 0.00 548.00 173.80" xmlns="http://www.w3.org/2000/svg" xmlns:xlink="http://www.w3.org/1999/xlink">
<g id="graph0" class="graph" transform="scale(1 1) rotate(0) translate(4 169.8)">
<title>dependencies</title>
<polygon fill="white" stroke="transparent" points="-4,4 -4,-169.8 544,-169.8 544,4 -4,4"/>
<text text-anchor="middle" x="270" y="-8.2" font-family="sans-serif" font-size="14.00">dependencies</text>
<g id="clust1" class="cluster">
<title>cluster_AppModule</title>
<polygon fill="none" stroke="black" stroke-dasharray="1,5" points="8,-32.8 8,-157.8 532,-157.8 532,-32.8 8,-32.8"/>
</g>
<g id="clust3" class="cluster">
<title>cluster_AppModule_imports</title>
<polygon fill="none" stroke="black" points="16,-40.8 16,-92.8 524,-92.8 524,-40.8 16,-40.8"/>
</g>
<!-- ConnectionModule -->
<g id="node1" class="node">
<title>ConnectionModule</title>
<polygon fill="#8dd3c7" stroke="black" points="516.1,-84.8 513.1,-88.8 492.1,-88.8 489.1,-84.8 391.9,-84.8 391.9,-48.8 516.1,-48.8 516.1,-84.8"/>
<text text-anchor="middle" x="454" y="-62.6" font-family="Times,serif" font-size="14.00">ConnectionModule</text>
</g>
<!-- AppModule -->
<g id="node5" class="node">
<title>AppModule</title>
<polygon fill="#8dd3c7" stroke="black" points="288.66,-149.8 285.66,-153.8 264.66,-153.8 261.66,-149.8 205.34,-149.8 205.34,-113.8 288.66,-113.8 288.66,-149.8"/>
<text text-anchor="middle" x="247" y="-127.6" font-family="Times,serif" font-size="14.00">AppModule</text>
</g>
<!-- ConnectionModule&#45;&gt;AppModule -->
<g id="edge1" class="edge">
<title>ConnectionModule&#45;&gt;AppModule</title>
<path fill="none" stroke="black" d="M454,-84.91C454,-104.14 454,-131.8 454,-131.8 454,-131.8 298.89,-131.8 298.89,-131.8"/>
<polygon fill="black" stroke="black" points="298.89,-128.3 288.89,-131.8 298.89,-135.3 298.89,-128.3"/>
</g>
<!-- DescriptionModule -->
<g id="node2" class="node">
<title>DescriptionModule</title>
<polygon fill="#8dd3c7" stroke="black" points="374.37,-84.8 371.37,-88.8 350.37,-88.8 347.37,-84.8 249.63,-84.8 249.63,-48.8 374.37,-48.8 374.37,-84.8"/>
<text text-anchor="middle" x="312" y="-62.6" font-family="Times,serif" font-size="14.00">DescriptionModule</text>
</g>
<!-- DescriptionModule&#45;&gt;AppModule -->
<g id="edge2" class="edge">
<title>DescriptionModule&#45;&gt;AppModule</title>
<path fill="none" stroke="black" d="M269.2,-84.91C269.2,-84.91 269.2,-103.79 269.2,-103.79"/>
<polygon fill="black" stroke="black" points="265.7,-103.79 269.2,-113.79 272.7,-103.79 265.7,-103.79"/>
</g>
<!-- EventsModule -->
<g id="node3" class="node">
<title>EventsModule</title>
<polygon fill="#8dd3c7" stroke="black" points="231.66,-84.8 228.66,-88.8 207.66,-88.8 204.66,-84.8 134.34,-84.8 134.34,-48.8 231.66,-48.8 231.66,-84.8"/>
<text text-anchor="middle" x="183" y="-62.6" font-family="Times,serif" font-size="14.00">EventsModule</text>
</g>
<!-- EventsModule&#45;&gt;AppModule -->
<g id="edge3" class="edge">
<title>EventsModule&#45;&gt;AppModule</title>
<path fill="none" stroke="black" d="M218.5,-84.91C218.5,-84.91 218.5,-103.79 218.5,-103.79"/>
<polygon fill="black" stroke="black" points="215,-103.79 218.5,-113.79 222,-103.79 215,-103.79"/>
</g>
<!-- NewsModule -->
<g id="node4" class="node">
<title>NewsModule</title>
<polygon fill="#8dd3c7" stroke="black" points="115.94,-84.8 112.94,-88.8 91.94,-88.8 88.94,-84.8 24.06,-84.8 24.06,-48.8 115.94,-48.8 115.94,-84.8"/>
<text text-anchor="middle" x="70" y="-62.6" font-family="Times,serif" font-size="14.00">NewsModule</text>
</g>
<!-- NewsModule&#45;&gt;AppModule -->
<g id="edge4" class="edge">
<title>NewsModule&#45;&gt;AppModule</title>
<path fill="none" stroke="black" d="M70,-84.91C70,-104.14 70,-131.8 70,-131.8 70,-131.8 195.05,-131.8 195.05,-131.8"/>
<polygon fill="black" stroke="black" points="195.05,-135.3 205.05,-131.8 195.05,-128.3 195.05,-135.3"/>
</g>
</g>
</svg>
