<?xml version="1.0" encoding="UTF-8" standalone="no"?>
<!DOCTYPE svg PUBLIC "-//W3C//DTD SVG 1.1//EN"
 "http://www.w3.org/Graphics/SVG/1.1/DTD/svg11.dtd">
<!-- Generated by graphviz version 5.0.0 (20220707.1540)
 -->
<!-- Title: dependencies Pages: 1 -->
<svg width="772pt" height="250pt"
 viewBox="0.00 0.00 772.00 249.80" xmlns="http://www.w3.org/2000/svg" xmlns:xlink="http://www.w3.org/1999/xlink">
<g id="graph0" class="graph" transform="scale(1 1) rotate(0) translate(4 245.8)">
<title>dependencies</title>
<polygon fill="white" stroke="transparent" points="-4,4 -4,-245.8 768,-245.8 768,4 -4,4"/>
<text text-anchor="middle" x="382" y="-8.2" font-family="sans-serif" font-size="14.00">dependencies</text>
<g id="clust1" class="cluster">
<title>cluster_AppModule</title>
<polygon fill="none" stroke="black" stroke-dasharray="1,5" points="130,-108.8 130,-233.8 654,-233.8 654,-108.8 130,-108.8"/>
</g>
<g id="clust3" class="cluster">
<title>cluster_AppModule_imports</title>
<polygon fill="none" stroke="black" points="138,-116.8 138,-168.8 646,-168.8 646,-116.8 138,-116.8"/>
</g>
<g id="clust7" class="cluster">
<title>cluster_ConnectionModule</title>
<polygon fill="none" stroke="black" stroke-dasharray="1,5" points="8,-32.8 8,-100.8 210,-100.8 210,-32.8 8,-32.8"/>
</g>
<g id="clust12" class="cluster">
<title>cluster_ConnectionModule_providers</title>
<polygon fill="none" stroke="black" points="16,-40.8 16,-92.8 202,-92.8 202,-40.8 16,-40.8"/>
</g>
<g id="clust13" class="cluster">
<title>cluster_DescriptionModule</title>
<polygon fill="none" stroke="black" stroke-dasharray="1,5" points="218,-32.8 218,-100.8 420,-100.8 420,-32.8 218,-32.8"/>
</g>
<g id="clust18" class="cluster">
<title>cluster_DescriptionModule_providers</title>
<polygon fill="none" stroke="black" points="226,-40.8 226,-92.8 412,-92.8 412,-40.8 226,-40.8"/>
</g>
<g id="clust19" class="cluster">
<title>cluster_EventsModule</title>
<polygon fill="none" stroke="black" stroke-dasharray="1,5" points="428,-32.8 428,-100.8 592,-100.8 592,-32.8 428,-32.8"/>
</g>
<g id="clust24" class="cluster">
<title>cluster_EventsModule_providers</title>
<polygon fill="none" stroke="black" points="436,-40.8 436,-92.8 584,-92.8 584,-40.8 436,-40.8"/>
</g>
<g id="clust25" class="cluster">
<title>cluster_NewsModule</title>
<polygon fill="none" stroke="black" stroke-dasharray="1,5" points="600,-32.8 600,-100.8 756,-100.8 756,-32.8 600,-32.8"/>
</g>
<g id="clust30" class="cluster">
<title>cluster_NewsModule_providers</title>
<polygon fill="none" stroke="black" points="608,-40.8 608,-92.8 748,-92.8 748,-40.8 608,-40.8"/>
</g>
<!-- ConnectionModule -->
<g id="node1" class="node">
<title>ConnectionModule</title>
<polygon fill="#8dd3c7" stroke="black" points="270.1,-160.8 267.1,-164.8 246.1,-164.8 243.1,-160.8 145.9,-160.8 145.9,-124.8 270.1,-124.8 270.1,-160.8"/>
<text text-anchor="middle" x="208" y="-138.6" font-family="Times,serif" font-size="14.00">ConnectionModule</text>
</g>
<!-- AppModule -->
<g id="node5" class="node">
<title>AppModule</title>
<polygon fill="#8dd3c7" stroke="black" points="455.66,-225.8 452.66,-229.8 431.66,-229.8 428.66,-225.8 372.34,-225.8 372.34,-189.8 455.66,-189.8 455.66,-225.8"/>
<text text-anchor="middle" x="414" y="-203.6" font-family="Times,serif" font-size="14.00">AppModule</text>
</g>
<!-- ConnectionModule&#45;&gt;AppModule -->
<g id="edge1" class="edge">
<title>ConnectionModule&#45;&gt;AppModule</title>
<path fill="none" stroke="black" d="M208,-160.91C208,-180.14 208,-207.8 208,-207.8 208,-207.8 362.31,-207.8 362.31,-207.8"/>
<polygon fill="black" stroke="black" points="362.31,-211.3 372.31,-207.8 362.31,-204.3 362.31,-211.3"/>
</g>
<!-- DescriptionModule -->
<g id="node2" class="node">
<title>DescriptionModule</title>
<polygon fill="#8dd3c7" stroke="black" points="412.37,-160.8 409.37,-164.8 388.37,-164.8 385.37,-160.8 287.63,-160.8 287.63,-124.8 412.37,-124.8 412.37,-160.8"/>
<text text-anchor="middle" x="350" y="-138.6" font-family="Times,serif" font-size="14.00">DescriptionModule</text>
</g>
<!-- DescriptionModule&#45;&gt;AppModule -->
<g id="edge2" class="edge">
<title>DescriptionModule&#45;&gt;AppModule</title>
<path fill="none" stroke="black" d="M392.3,-160.91C392.3,-160.91 392.3,-179.79 392.3,-179.79"/>
<polygon fill="black" stroke="black" points="388.8,-179.79 392.3,-189.79 395.8,-179.79 388.8,-179.79"/>
</g>
<!-- EventsModule -->
<g id="node3" class="node">
<title>EventsModule</title>
<polygon fill="#8dd3c7" stroke="black" points="527.66,-160.8 524.66,-164.8 503.66,-164.8 500.66,-160.8 430.34,-160.8 430.34,-124.8 527.66,-124.8 527.66,-160.8"/>
<text text-anchor="middle" x="479" y="-138.6" font-family="Times,serif" font-size="14.00">EventsModule</text>
</g>
<!-- EventsModule&#45;&gt;AppModule -->
<g id="edge3" class="edge">
<title>EventsModule&#45;&gt;AppModule</title>
<path fill="none" stroke="black" d="M443,-160.91C443,-160.91 443,-179.79 443,-179.79"/>
<polygon fill="black" stroke="black" points="439.5,-179.79 443,-189.79 446.5,-179.79 439.5,-179.79"/>
</g>
<!-- NewsModule -->
<g id="node4" class="node">
<title>NewsModule</title>
<polygon fill="#8dd3c7" stroke="black" points="637.94,-160.8 634.94,-164.8 613.94,-164.8 610.94,-160.8 546.06,-160.8 546.06,-124.8 637.94,-124.8 637.94,-160.8"/>
<text text-anchor="middle" x="592" y="-138.6" font-family="Times,serif" font-size="14.00">NewsModule</text>
</g>
<!-- NewsModule&#45;&gt;AppModule -->
<g id="edge4" class="edge">
<title>NewsModule&#45;&gt;AppModule</title>
<path fill="none" stroke="black" d="M592,-160.91C592,-180.14 592,-207.8 592,-207.8 592,-207.8 465.73,-207.8 465.73,-207.8"/>
<polygon fill="black" stroke="black" points="465.73,-204.3 455.73,-207.8 465.73,-211.3 465.73,-204.3"/>
</g>
<!-- ConnectionService -->
<g id="node6" class="node">
<title>ConnectionService</title>
<ellipse fill="#fdb462" stroke="black" cx="109" cy="-66.8" rx="84.53" ry="18"/>
<text text-anchor="middle" x="109" y="-62.6" font-family="Times,serif" font-size="14.00">ConnectionService</text>
</g>
<!-- ConnectionService&#45;&gt;ConnectionModule -->
<g id="edge5" class="edge">
<title>ConnectionService&#45;&gt;ConnectionModule</title>
<path fill="none" stroke="black" d="M169.73,-79.35C169.73,-79.35 169.73,-114.54 169.73,-114.54"/>
<polygon fill="black" stroke="black" points="166.23,-114.54 169.73,-124.54 173.23,-114.54 166.23,-114.54"/>
</g>
<!-- DescriptionService -->
<g id="node7" class="node">
<title>DescriptionService</title>
<ellipse fill="#fdb462" stroke="black" cx="319" cy="-66.8" rx="85.1" ry="18"/>
<text text-anchor="middle" x="319" y="-62.6" font-family="Times,serif" font-size="14.00">DescriptionService</text>
</g>
<!-- DescriptionService&#45;&gt;DescriptionModule -->
<g id="edge6" class="edge">
<title>DescriptionService&#45;&gt;DescriptionModule</title>
<path fill="none" stroke="black" d="M345.81,-84.05C345.81,-84.05 345.81,-114.56 345.81,-114.56"/>
<polygon fill="black" stroke="black" points="342.31,-114.56 345.81,-124.56 349.31,-114.56 342.31,-114.56"/>
</g>
<!-- EventsService -->
<g id="node8" class="node">
<title>EventsService</title>
<ellipse fill="#fdb462" stroke="black" cx="510" cy="-66.8" rx="66.05" ry="18"/>
<text text-anchor="middle" x="510" y="-62.6" font-family="Times,serif" font-size="14.00">EventsService</text>
</g>
<!-- EventsService&#45;&gt;EventsModule -->
<g id="edge7" class="edge">
<title>EventsService&#45;&gt;EventsModule</title>
<path fill="none" stroke="black" d="M485.78,-83.67C485.78,-83.67 485.78,-114.65 485.78,-114.65"/>
<polygon fill="black" stroke="black" points="482.28,-114.65 485.78,-124.65 489.28,-114.65 482.28,-114.65"/>
</g>
<!-- NewsService -->
<g id="node9" class="node">
<title>NewsService</title>
<ellipse fill="#fdb462" stroke="black" cx="678" cy="-66.8" rx="61.97" ry="18"/>
<text text-anchor="middle" x="678" y="-62.6" font-family="Times,serif" font-size="14.00">NewsService</text>
</g>
<!-- NewsService&#45;&gt;NewsModule -->
<g id="edge8" class="edge">
<title>NewsService&#45;&gt;NewsModule</title>
<path fill="none" stroke="black" d="M626.87,-77.05C626.87,-77.05 626.87,-114.57 626.87,-114.57"/>
<polygon fill="black" stroke="black" points="623.37,-114.57 626.87,-124.57 630.37,-114.57 623.37,-114.57"/>
</g>
</g>
</svg>
